<svg width="32" height="21" viewBox="0 0 32 21" fill="none" xmlns="http://www.w3.org/2000/svg">
<path d="M6.59558 6.81793C6.90347 6.68215 7.23189 6.60973 7.57262 6.60973C9.06419 6.60973 10.3094 8.01102 10.5941 9.87397L12.7083 9.30368C12.2238 6.13902 10.1083 3.75647 7.57262 3.75647C6.99105 3.75647 6.43411 3.88139 5.91138 4.11313L6.59558 6.81793Z" fill="#C7C3C3" fill-opacity="0.9"/>
<path d="M4.10099 15.881L5.53098 13.7429C4.8933 12.9952 4.49099 11.9035 4.49099 10.6869C4.49099 9.47206 4.8933 8.38036 5.53098 7.63445L4.10099 5.49451C3.01721 6.76544 2.33301 8.62115 2.33301 10.6869C2.33301 12.7544 3.01721 14.6101 4.10099 15.881" fill="#898989" fill-opacity="0.9"/>
<path d="M10.5941 11.5052C10.3081 13.3664 9.06419 14.7659 7.57399 14.7659C7.23189 14.7659 6.9021 14.6934 6.59558 14.5559L5.91138 17.2643C6.43411 17.4942 6.99242 17.6191 7.57399 17.6191C10.1069 17.6191 12.2211 15.2402 12.7083 12.0792L10.5941 11.5052Z" fill="#9E9E9E" fill-opacity="0.9"/>
<path d="M14.5571 13.8316C14.4873 13.6831 14.3942 13.4459 14.3368 13.2703C14.0015 12.242 13.9865 11.1775 14.2683 10.1564C14.579 9.03569 15.1729 8.17935 15.9405 7.74122C16.9053 7.19266 17.9713 7.29948 18.8963 8.02546C19.4834 8.47083 19.8993 9.1588 20.2154 10.1328C20.2551 10.2577 20.2907 10.3899 20.3263 10.504L14.5571 13.8316ZM16.4838 9.39416C15.7982 9.78341 15.4452 10.6343 15.5191 11.6301L18.4201 9.97713C17.9206 9.20226 17.272 8.94517 16.4838 9.39416ZM18.7814 12.9897C18.78 12.9897 18.78 12.9915 18.78 12.9915L18.7198 12.9372C18.546 13.3083 18.2764 13.6107 17.9357 13.8062C17.2871 14.1792 16.6863 14.0832 16.2539 13.5817L16.2142 13.6614C16.2142 13.6614 16.2142 13.6596 16.2129 13.6596L15.4767 15.117C15.66 15.2854 15.8557 15.4266 16.061 15.5406C16.8738 15.9878 17.7058 15.9661 18.5255 15.4954C19.118 15.155 19.5832 14.6372 19.9007 13.98L18.7814 12.9897ZM22.342 5.59766V13.6976L23.2944 14.2081L22.7538 15.8774L21.7029 15.298C21.4675 15.1622 21.3061 14.9559 21.1857 14.7223C21.0693 14.4851 20.9831 14.1574 20.9831 13.7193V5.59766H22.342ZM24.8078 11.6355C24.8078 10.9457 25.0391 10.3265 25.4031 9.90652L24.426 8.4654C23.7637 9.24027 23.3464 10.3718 23.3464 11.6319C23.345 12.8938 23.7624 14.0271 24.4233 14.802L25.399 13.3608C25.0364 12.939 24.8078 12.3235 24.8078 11.6355ZM26.543 13.933C26.3514 13.933 26.1653 13.8895 25.9929 13.8135L25.5262 15.6474C25.8451 15.7887 26.1858 15.8665 26.5416 15.8665C28.0879 15.8683 29.3783 14.4163 29.678 12.4882L28.2439 12.1008C28.0811 13.149 27.3818 13.9348 26.543 13.933ZM26.5471 7.40448C26.1927 7.40448 25.8519 7.48052 25.5331 7.61992L25.9956 9.45572C26.1694 9.37968 26.3541 9.33804 26.5457 9.33804C27.3859 9.33985 28.0865 10.1292 28.2453 11.1793L29.6794 10.7954C29.3851 8.8637 28.0947 7.40629 26.5471 7.40448Z" fill="white" fill-opacity="0.6"/>
</svg>
